<svg xmlns="http://www.w3.org/2000/svg" viewBox="0 0 960 960" fill="#2f6b4a"><path d="M450 880V693q-47 24-94 46.5T256 762q-60 0-114-26t-102-48q41-40 90-69t106-34q-79-52-116-138t-46-180q78-2 150 26t145 82q-2-9-2-19v-18q0-91 37.5-173T472-80q59 72 100 155t40 176q0 10-1 19t-1 19q56-55 128-84t150-27q-10 94-47 180t-101 140q57 5 105 34t89 68q-49 34-103 59t-114 25q-53 0-100-22.5T510 693v187h-60Zm-52-295q-13-46-32-90t-51-79q-32-33-73.5-52.5T155 330q12 47 30.5 90.5T237 519q32 34 74 53.5t87 32.5ZM255 702q29 0 55-10t52-22q-26-12-52-23.5T256 635q-29 0-55 10.5T150 668q24 14 50.5 24t55 10ZM482 580q36-56 53-119.5T552 331q0-60-21.5-115T480 110q-30 51-51 106t-21 115q0 66 21 128.5T482 580Zm81 5q45-13 86.5-33t73.5-53q32-35 50.5-79t31.5-90q-45 14-86.5 33.5T645 441q-35 35-53 79t-9 65Zm141 117q28 0 54-10t52-22q-26-12-52-23.5T704 635q-29 0-55 11.5T598 670q26 12 52 22t54 10Z"/></svg>
